<svg xmlns="http://www.w3.org/2000/svg" width="125" height="126" viewBox="0 0 125 126"><g><g><g><path fill="#44a52f" d="M6.212 25.485s4.057-15.106 18.427-18.933c0 0 16.523-6.269 35.732-6.269 0 0 25.026 0 43.38 7.652 0 0 11.365 4.886 14.372 16.167 0 0 6.794 16.956 6.206 38.53 0 0-.657 22.04-5.229 36.752 0 0-3.397 15.43-17.377 19.13 0 0-21.236 7.257-37.172 6.862 0 0-17.768.27-31.552-3.162 0 0-19.6-4.292-24.759-15.771 0 0-7.184-17.944-7.843-43.415-.204-7.907 1.352-25.717 5.815-37.543z"/></g><g><g><g><path fill="#fff" d="M51.357 15.502a6.214 6.214 0 0 1 6.216-6.214 6.214 6.214 0 0 1 0 12.426 6.214 6.214 0 0 1-6.216-6.212z"/></g><g><path fill="#fff" d="M52.812 25.106l13.228-3.08 20.363 6.956 1.628 18.897-6.892.624-3.082-14.088-5.748-1.522 2.286 19.797 14.268 32.154-8.312 4.395-11.117-18.067-5.957-12.737-7.79 15.506-3.81 16.13-11.185-1.35 4.916-21.045 7.517-16.82-.729-10.971-9.766 4.603-14.682-1.143 1.766-6.125 11.601-.104z"/></g></g><g><path fill="#fff" d="M70.716 93.747H87.81a6.576 6.576 0 0 1 6.574 6.575v9.488a6.575 6.575 0 0 1-6.574 6.575H70.716a6.575 6.575 0 0 1-6.574-6.575v-9.488a6.576 6.576 0 0 1 6.574-6.575zm16.532 8.277c0-.95-.19-1.677-.901-2.292-.712-.615-1.533-.643-2.545-.643H75.27c-.575 0-1.996-.11-2.791.476-1.066.697-1.203 1.816-1.203 3.13v4.612c0 1.119-.027 1.984.656 2.824.494.559 2.08.92 2.763.92h9.136c1.011 0 1.914-.278 2.46-.698.767-.587.957-1.424.957-2.43zm-48.577-8.277h16.576c3.521 0 6.376 2.944 6.376 6.575v1.012h-6.961c-.086-.627-.322-1.146-.834-1.602-.69-.615-1.485-.643-2.467-.643h-8.275c-.556 0-1.935-.11-2.705.476-1.036.697-1.167 1.816-1.167 3.13v4.612c0 1.119-.025 1.984.636 2.824.478.559 2.016.92 2.68.92h8.859c.98 0 1.856-.278 2.386-.698.744-.587.967-1.472.967-2.479h-8.7v-4.62l8.662-.002 4.764.002 2.155-.002v6.558c0 3.632-2.855 6.575-6.376 6.575H38.67c-3.521 0-6.377-2.943-6.377-6.575v-9.488c0-3.63 2.856-6.575 6.377-6.575z"/></g></g></g></g></svg>