<svg xmlns="http://www.w3.org/2000/svg" width="35" height="25" viewBox="0 0 35 25"><g><g><g><g><path d="M5.878 18.55a.582.582 0 1 0 0 1.164h3.127a.582.582 0 1 0 0-1.164zm0-3.145a.582.582 0 1 0 0 1.164H13.2a.582.582 0 0 0 0-1.164zm-3.561-3.84h30.3v9.498c0 1.18-.934 2.112-2.114 2.112H4.43a2.095 2.095 0 0 1-2.113-2.112zm0-4.063h30.3v2.9h-30.3zM4.43 1.664h26.072c1.181 0 2.114.929 2.114 2.11v2.563H2.317V3.774c0-1.181.932-2.11 2.113-2.11zm0-1.163a3.28 3.28 0 0 0-3.277 3.273v17.289a3.282 3.282 0 0 0 3.277 3.276h26.072a3.283 3.283 0 0 0 3.278-3.276V3.773A3.28 3.28 0 0 0 30.502.502z"/><path fill="none" stroke="#000" stroke-miterlimit="20" stroke-width=".5" d="M5.878 18.55a.582.582 0 1 0 0 1.164h3.127a.582.582 0 1 0 0-1.164zm0-3.145a.582.582 0 1 0 0 1.164H13.2a.582.582 0 0 0 0-1.164zm-3.561-3.84h30.3v9.498c0 1.18-.934 2.112-2.114 2.112H4.43a2.095 2.095 0 0 1-2.113-2.112zm0-4.063h30.3v2.9h-30.3zM4.43 1.664h26.072c1.181 0 2.114.929 2.114 2.11v2.563H2.317V3.774c0-1.181.932-2.11 2.113-2.11zm0-1.163a3.28 3.28 0 0 0-3.277 3.273v17.289a3.282 3.282 0 0 0 3.277 3.276h26.072a3.283 3.283 0 0 0 3.278-3.276V3.773A3.28 3.28 0 0 0 30.502.502z"/></g></g></g></g></svg>