<svg xmlns="http://www.w3.org/2000/svg" width="45" height="44" viewBox="0 0 45 44"><g><g><path d="M34.589 34.307H10.277a.12.12 0 0 1-.114-.096l1.289-13.65c1.568 4.036 5.3 7 9.764 7.46v.608a1.354 1.354 0 1 0 2.71 0v-.64c4.341-.551 7.952-3.476 9.488-7.429l1.289 13.65a.12.12 0 0 1-.114.097zM22.433 9.693c3.292 0 6.011 2.497 6.366 5.697H16.067c.354-3.2 3.074-5.697 6.366-5.697zm.138 14.802c-.748 0-1.355.606-1.355 1.354v.468c-4.735-.572-8.47-4.44-8.837-9.234h20.107c-.359 4.701-3.957 8.51-8.56 9.197v-.43c0-.749-.607-1.355-1.355-1.355zm12.222-7.342a1.81 1.81 0 0 0-.978-1.56.842.842 0 0 0-.258-.109 1.796 1.796 0 0 0-.573-.094H30.5C30.14 11.255 26.66 8 22.433 8s-7.707 3.255-8.068 7.39h-2.483c-.2 0-.393.034-.574.095a.842.842 0 0 0-.257.108 1.81 1.81 0 0 0-.978 1.56L8.472 34.111A1.812 1.812 0 0 0 10.277 36h24.311a1.811 1.811 0 0 0 1.806-1.889z"/><path fill="none" stroke="#000" stroke-miterlimit="20" stroke-width=".75" d="M34.589 34.307H10.277a.12.12 0 0 1-.114-.096l1.289-13.65c1.568 4.036 5.3 7 9.764 7.46v.608a1.354 1.354 0 1 0 2.71 0v-.64c4.341-.551 7.952-3.476 9.488-7.429l1.289 13.65a.12.12 0 0 1-.114.097zM22.433 9.693c3.292 0 6.011 2.497 6.366 5.697H16.067c.354-3.2 3.074-5.697 6.366-5.697zm.138 14.802c-.748 0-1.355.606-1.355 1.354v.468c-4.735-.572-8.47-4.44-8.837-9.234h20.107c-.359 4.701-3.957 8.51-8.56 9.197v-.43c0-.749-.607-1.355-1.355-1.355zm12.222-7.342a1.81 1.81 0 0 0-.978-1.56.842.842 0 0 0-.258-.109 1.796 1.796 0 0 0-.573-.094H30.5C30.14 11.255 26.66 8 22.433 8s-7.707 3.255-8.068 7.39h-2.483c-.2 0-.393.034-.574.095a.842.842 0 0 0-.257.108 1.81 1.81 0 0 0-.978 1.56L8.472 34.111A1.812 1.812 0 0 0 10.277 36h24.311a1.811 1.811 0 0 0 1.806-1.889z"/></g></g></svg>