<svg xmlns="http://www.w3.org/2000/svg" width="36" height="38" viewBox="0 0 36 38"><g><g><g><path fill="#fff" d="M29.066 30.201H6.9a.11.11 0 0 1-.104-.087L7.97 17.668c1.43 3.68 4.833 6.383 8.903 6.802v.555a1.235 1.235 0 1 0 2.47 0v-.584c3.958-.503 7.25-3.17 8.651-6.773l1.175 12.445a.11.11 0 0 1-.104.088zM17.983 7.76a5.848 5.848 0 0 1 5.804 5.194H12.179a5.849 5.849 0 0 1 5.804-5.194zm.126 13.496c-.682 0-1.235.553-1.235 1.235v.427c-4.318-.522-7.724-4.048-8.057-8.42h18.332c-.327 4.287-3.608 7.76-7.805 8.386v-.393c0-.682-.553-1.235-1.235-1.235zm11.143-6.694a1.651 1.651 0 0 0-.891-1.422.768.768 0 0 0-.235-.1 1.637 1.637 0 0 0-.523-.086h-2.264c-.329-3.77-3.502-6.737-7.356-6.737s-7.027 2.968-7.356 6.738H8.363c-.183 0-.358.03-.523.086a.767.767 0 0 0-.235.099 1.651 1.651 0 0 0-.891 1.422l-1.46 15.462A1.652 1.652 0 0 0 6.9 31.745h22.166a1.651 1.651 0 0 0 1.646-1.722z"/><path fill="none" stroke="#fff" stroke-miterlimit="20" stroke-width=".5" d="M29.066 30.201H6.9a.11.11 0 0 1-.104-.087L7.97 17.668c1.43 3.68 4.833 6.383 8.903 6.802v.555a1.235 1.235 0 1 0 2.47 0v-.584c3.958-.503 7.25-3.17 8.651-6.773l1.175 12.445a.11.11 0 0 1-.104.088zM17.983 7.76a5.848 5.848 0 0 1 5.804 5.194H12.179a5.849 5.849 0 0 1 5.804-5.194zm.126 13.496c-.682 0-1.235.553-1.235 1.235v.427c-4.318-.522-7.724-4.048-8.057-8.42h18.332c-.327 4.287-3.608 7.76-7.805 8.386v-.393c0-.682-.553-1.235-1.235-1.235zm11.143-6.694a1.651 1.651 0 0 0-.891-1.422.768.768 0 0 0-.235-.1 1.637 1.637 0 0 0-.523-.086h-2.264c-.329-3.77-3.502-6.737-7.356-6.737s-7.027 2.968-7.356 6.738H8.363c-.183 0-.358.03-.523.086a.767.767 0 0 0-.235.099 1.651 1.651 0 0 0-.891 1.422l-1.46 15.462A1.652 1.652 0 0 0 6.9 31.745h22.166a1.651 1.651 0 0 0 1.646-1.722z"/></g></g></g></svg>