<svg xmlns="http://www.w3.org/2000/svg" width="46" height="47" viewBox="0 0 46 47"><g><g><g><g><path d="M23 43.986c-11.318 0-20.493-9.175-20.493-20.493C2.507 12.175 11.682 3 23 3c11.318 0 20.493 9.175 20.493 20.493-.013 11.313-9.18 20.48-20.493 20.493zM23 1C10.577 1 .507 11.07.507 23.493c0 12.423 10.07 22.493 22.493 22.493 12.423 0 22.493-10.07 22.493-22.493C45.48 11.076 35.417 1.014 23 1z"/><path fill="none" stroke="#000" stroke-miterlimit="20" d="M23 43.986c-11.318 0-20.493-9.175-20.493-20.493C2.507 12.175 11.682 3 23 3c11.318 0 20.493 9.175 20.493 20.493-.013 11.313-9.18 20.48-20.493 20.493zM23 1C10.577 1 .507 11.07.507 23.493c0 12.423 10.07 22.493 22.493 22.493 12.423 0 22.493-10.07 22.493-22.493C45.48 11.076 35.417 1.014 23 1z"/></g><g><path d="M24 23.08v-9.608a1 1 0 1 0-2 0v10.021a1 1 0 0 0 .293.707l6.33 6.33a1 1 0 0 0 1.413-1.415z"/><path fill="none" stroke="#000" stroke-miterlimit="20" d="M24 23.08v0-9.608a1 1 0 1 0-2 0v10.021a1 1 0 0 0 .293.707l6.33 6.33a1 1 0 0 0 1.413-1.415z"/></g><g><path d="M22.29 7.863c.097.088.208.16.33.21.118.056.249.083.38.08.266 0 .521-.103.71-.29.09-.092.161-.2.21-.32a.908.908 0 0 0 .08-.39 1.252 1.252 0 0 0-.02-.19.617.617 0 0 0-.06-.19.553.553 0 0 0-.09-.17 1.001 1.001 0 0 0-1.66 0 .553.553 0 0 0-.09.17.604.604 0 0 0-.06.19 1.194 1.194 0 0 0-.02.19c.002.134.03.266.08.39.048.12.12.228.21.32z"/><path fill="none" stroke="#000" stroke-miterlimit="20" d="M22.29 7.863c.097.088.208.16.33.21.118.056.249.083.38.08.266 0 .521-.103.71-.29.09-.092.161-.2.21-.32a.908.908 0 0 0 .08-.39 1.252 1.252 0 0 0-.02-.19.617.617 0 0 0-.06-.19.553.553 0 0 0-.09-.17 1.001 1.001 0 0 0-1.66 0 .553.553 0 0 0-.09.17.604.604 0 0 0-.06.19 1.194 1.194 0 0 0-.02.19c.002.134.03.266.08.39.048.12.12.228.21.32z"/></g><g><path d="M23.71 38.893a1.043 1.043 0 0 0-1.09-.21.904.904 0 0 0-.54.54 1 1 0 0 0-.08.38 1 1 0 0 0 2 0 .838.838 0 0 0-.08-.38 1.171 1.171 0 0 0-.21-.33z"/><path fill="none" stroke="#000" stroke-miterlimit="20" d="M23.71 38.893a1.043 1.043 0 0 0-1.09-.21.904.904 0 0 0-.54.54 1 1 0 0 0-.08.38 1 1 0 0 0 2 0 .838.838 0 0 0-.08-.38 1.171 1.171 0 0 0-.21-.33z"/></g><g><path d="M7.33 22.553a.926.926 0 0 0-.17-.1 1.366 1.366 0 0 0-.19-.05 1.005 1.005 0 0 0-1.2.98c.002.064.008.127.02.19.02.07.04.13.06.19.03.06.06.12.09.17.035.057.079.107.13.15a.977.977 0 0 0 1.09.22.893.893 0 0 0 .32-.22.643.643 0 0 0 .13-.15c.03-.05.06-.11.09-.17.02-.06.04-.12.06-.19a1 1 0 0 0-.28-.9.562.562 0 0 0-.15-.12z"/><path fill="none" stroke="#000" stroke-miterlimit="20" d="M7.33 22.553a.926.926 0 0 0-.17-.1 1.366 1.366 0 0 0-.19-.05 1.005 1.005 0 0 0-1.2.98c.002.064.008.127.02.19.02.07.04.13.06.19.03.06.06.12.09.17.035.057.079.107.13.15a.977.977 0 0 0 1.09.22.893.893 0 0 0 .32-.22.643.643 0 0 0 .13-.15c.03-.05.06-.11.09-.17.02-.06.04-.12.06-.19a1 1 0 0 0-.28-.9.562.562 0 0 0-.15-.12z"/></g><g><path d="M38.3 23.763c.03.06.06.12.09.17.035.057.079.107.13.15a.874.874 0 0 0 .32.22c.124.05.256.077.39.08a.999.999 0 0 0 .7-.3.634.634 0 0 0 .13-.15c.03-.05.06-.11.09-.17.02-.06.04-.12.06-.19.011-.063.018-.126.02-.19a1 1 0 0 0-.3-.71 1.01 1.01 0 0 0-.32-.22c-.247-.1-.523-.1-.77 0a1.01 1.01 0 0 0-.61.93.613.613 0 0 0 .02.19c.01.065.027.128.05.19z"/><path fill="none" stroke="#000" stroke-miterlimit="20" d="M38.3 23.763c.03.06.06.12.09.17.035.057.079.107.13.15a.874.874 0 0 0 .32.22c.124.05.256.077.39.08a.999.999 0 0 0 .7-.3.634.634 0 0 0 .13-.15c.03-.05.06-.11.09-.17.02-.06.04-.12.06-.19.011-.063.018-.126.02-.19a1 1 0 0 0-.3-.71 1.01 1.01 0 0 0-.32-.22c-.247-.1-.523-.1-.77 0a1.01 1.01 0 0 0-.61.93.613.613 0 0 0 .02.19c.01.065.027.128.05.19z"/></g></g></g></g></svg>