<svg xmlns="http://www.w3.org/2000/svg" width="52" height="52" viewBox="0 0 52 52"><g><g><g><path fill="#1a1818" d="M0 26C0 11.64 11.64 0 26 0s26 11.64 26 26-11.64 26-26 26S0 40.36 0 26z"/></g><g><path fill="#fff" d="M34.304 16.79l-7.99 7.997-7.99-7.998-1.22 1.221L25.102 26l-7.998 7.99 1.22 1.22 7.99-7.997 7.99 7.998 1.221-1.222L27.527 26l7.998-7.989z"/><path fill="none" stroke="#fff" stroke-miterlimit="20" d="M34.304 16.79v0l-7.99 7.997v0l-7.99-7.998v0l-1.22 1.221v0L25.102 26v0l-7.998 7.99v0l1.22 1.22v0l7.99-7.997v0l7.99 7.998v0l1.221-1.222v0L27.527 26v0l7.998-7.989v0z"/></g></g></g></svg>