<svg xmlns="http://www.w3.org/2000/svg" width="40" height="24" viewBox="0 0 40 24"><g><g><g><g><g><path d="M18.49 7.465a6.011 6.011 0 0 1 6.004 6.004 6.011 6.011 0 0 1-6.004 6.005 6.01 6.01 0 0 1-6.004-6.005 6.01 6.01 0 0 1 6.004-6.004zm0 13.71c4.25 0 7.706-3.456 7.706-7.706 0-4.249-3.457-7.706-7.706-7.706-4.25 0-7.706 3.457-7.706 7.706 0 4.25 3.457 7.707 7.706 7.707z"/></g><g><path d="M38.298 19.273H37.1V3.833a.851.851 0 0 0-.85-.851H4.6v-1.28h33.697zm-2.899 2.981H32.07a4.28 4.28 0 0 1 3.33-3.329zm-33.697 0v-3.329a4.278 4.278 0 0 1 3.329 3.33zM35.4 8.014a4.279 4.279 0 0 1-3.329-3.33h3.33zm-5.049-3.33A5.971 5.971 0 0 0 35.4 9.732v7.474a5.971 5.971 0 0 0-5.049 5.048H6.753a5.974 5.974 0 0 0-5.05-5.048V9.733A5.97 5.97 0 0 0 6.75 4.684h23.6zm-28.648 0h3.329a4.278 4.278 0 0 1-3.329 3.329zM39.15 0h-35.4A.851.851 0 0 0 2.9.85v2.131H.85A.851.851 0 0 0 0 3.833v19.273c0 .47.381.851.851.851H36.25c.47 0 .85-.381.85-.851v-2.131h2.049c.47 0 .851-.381.851-.851V.85A.851.851 0 0 0 39.149 0z"/></g></g></g></g></g></svg>