<svg xmlns="http://www.w3.org/2000/svg" width="26" height="43" viewBox="0 0 26 43"><g><g><g><path d="M8.8 39.062a9.38 9.38 0 0 0 3.913.706 9.38 9.38 0 0 0 3.913-.706 9.38 9.38 0 0 0-3.913-.707 9.38 9.38 0 0 0-3.913.707zm3.913 3.531c-3.517 0-7.063-1.088-7.063-3.531 0-2.444 3.546-3.532 7.063-3.532s7.063 1.088 7.063 3.532c0 2.443-3.546 3.531-7.063 3.531zm0-39.552c-5.46 0-9.888 4.427-9.888 9.888 0 6.37 7.19 14.79 9.888 17.728 2.698-2.924 9.888-11.3 9.888-17.728 0-5.46-4.427-9.888-9.888-9.888zm0 31.077a1.413 1.413 0 0 1-1.003-.41C11.3 33.228 0 21.885 0 12.929 0 5.908 5.692.216 12.713.216c7.021 0 12.713 5.692 12.713 12.713 0 8.956-11.3 20.299-11.71 20.779a1.413 1.413 0 0 1-1.003.41zm0-22.601a1.413 1.413 0 1 0 0 2.825 1.413 1.413 0 0 0 0-2.825zm0 5.65a4.238 4.238 0 1 1 0-8.475 4.238 4.238 0 0 1 0 8.475z"/></g></g></g></svg>