<svg xmlns="http://www.w3.org/2000/svg" viewBox="0 0 29 28"><g><g><path d="M11.776 19.934c-2.266 0-4.34-.883-5.953-2.458-3.265-3.265-3.265-8.604 0-11.907a8.365 8.365 0 0 1 5.953-2.458c2.267 0 4.34.883 5.954 2.458 1.613 1.575 2.458 3.687 2.458 5.954 0 2.266-.883 4.34-2.458 5.953-1.575 1.613-3.726 2.458-5.954 2.458zm16.017 5.416l-6.875-6.875C24.375 13.98 24.028 7.49 19.88 3.38A11.426 11.426 0 0 0 11.738 0a11.426 11.426 0 0 0-8.143 3.38c-4.493 4.494-4.493 11.791 0 16.285a11.426 11.426 0 0 0 8.143 3.38c2.458 0 4.916-.768 6.952-2.343l6.914 6.837c.307.307.691.46 1.113.46.385 0 .807-.153 1.114-.46.576-.576.576-1.575-.038-2.19z"/></g></g></svg>