<svg xmlns="http://www.w3.org/2000/svg" width="45" height="26" viewBox="0 0 45 26"><g><g><path d="M42.194 18.615c0 .685-.556 1.24-1.241 1.24h-.186a4.964 4.964 0 0 0-9.58 0h-1.403V8.688c0-.685.555-1.241 1.24-1.241h6.119c.413 0 .799.204 1.03.546l3.822 5.733c.134.199.207.431.211.67zm-6.205 4.964a2.482 2.482 0 1 1 0-4.964 2.482 2.482 0 0 1 0 4.964zm-14.892 0a2.482 2.482 0 1 1 0-4.964 2.482 2.482 0 0 1 0 4.964zm22.958-11.17l-3.822-5.795a3.723 3.723 0 0 0-3.09-1.65h-6.118a3.723 3.723 0 0 0-1.241.223V3.723A3.723 3.723 0 0 0 26.06 0H1.24a1.241 1.241 0 1 0 0 2.482h24.82c.685 0 1.24.556 1.24 1.241v16.133h-1.426a4.964 4.964 0 0 0-9.58 0h-.162a1.241 1.241 0 0 1-1.241-1.241v-2.482a1.241 1.241 0 1 0-2.482 0v2.482a3.723 3.723 0 0 0 3.723 3.723h.174a4.964 4.964 0 0 0 9.58 0H31.2a4.964 4.964 0 0 0 9.58 0h.174a3.723 3.723 0 0 0 3.723-3.723v-4.207a3.723 3.723 0 0 0-.62-1.998z"/></g><g><path d="M19.856 6.205c0-.685-.556-1.241-1.241-1.241H4.964a1.241 1.241 0 1 0 0 2.482h13.65c.686 0 1.242-.556 1.242-1.241z"/></g><g><path d="M19.856 11.169c0-.685-.556-1.241-1.241-1.241H8.687a1.241 1.241 0 1 0 0 2.482h9.928c.685 0 1.24-.556 1.24-1.241z"/></g></g></svg>