<svg xmlns="http://www.w3.org/2000/svg" width="30" height="30" viewBox="0 0 30 30">
  <path
    d="M3.814 26.573l1.198-4.255-.305-.477a12.274 12.274 0 0 1-1.945-6.646c0-6.792 5.525-12.318 12.318-12.318 6.792 0 12.318 5.526 12.318 12.318S21.872 27.513 15.08 27.513c-2.268 0-4.484-.62-6.409-1.796l-.454-.277zm4.013 1.565a14.815 14.815 0 0 0 7.253 1.892c8.18 0 14.834-6.655 14.834-14.835S23.259.361 15.08.361C6.9.36.245 7.016.245 15.195c0 2.657.705 5.243 2.043 7.516L.207 30.1z" />
  <path
    d="M10.912 8.29l-.962-.052a1.164 1.164 0 0 0-.828.283c-.466.406-1.212 1.19-1.442 2.21-.341 1.522.187 3.386 1.554 5.25 1.367 1.864 3.914 4.847 8.419 6.12 1.451.41 2.593.134 3.474-.43A3.107 3.107 0 0 0 22.48 19.7l.153-.718a.499.499 0 0 0-.279-.557l-3.253-1.5a.499.499 0 0 0-.604.149l-1.277 1.655a.365.365 0 0 1-.41.122c-.875-.307-3.805-1.534-5.412-4.63a.37.37 0 0 1 .046-.412l1.22-1.412a.499.499 0 0 0 .082-.522l-1.402-3.281a.499.499 0 0 0-.432-.302z" />
</svg>