<svg xmlns="http://www.w3.org/2000/svg" viewBox="0 0 63 62">
  <defs>
    <clipPath id="lc28a">
      <path fill="#fff"
        d="M.486 31c0-17.12 13.88-31 31-31 17.121 0 31 13.88 31 31 0 17.12-13.879 31-31 31-17.12 0-31-13.88-31-31z" />
    </clipPath>
  </defs>
  <g>
    <g>
      <g>
        <path fill="none" stroke="#1a1818" stroke-miterlimit="20" stroke-width="4"
          d="M.486 31c0-17.12 13.88-31 31-31 17.121 0 31 13.88 31 31 0 17.12-13.879 31-31 31-17.12 0-31-13.88-31-31z"
          clip-path="url(&quot;#lc28a&quot;)" />
      </g>
      <g>
        <g>
          <path fill="#1a1818"
            d="M41.069 30.955l.09.09-.09.09zm-7.86-7.861l6.956 6.912H18.751v1.807h21.64l-7.183 7.138 1.265 1.265L43.69 31l-9.17-9.216z" />
        </g>
      </g>
    </g>
  </g>
</svg>