<svg xmlns="http://www.w3.org/2000/svg" width="68" height="67" viewBox="0 0 68 67"><g><g><g><path d="M33.598 63.898C16.838 63.898 3.2 50.26 3.2 33.5c0-16.76 13.637-30.398 30.398-30.398 16.76 0 30.397 13.638 30.397 30.398 0 16.76-13.637 30.398-30.397 30.398zm0-63.995C15.07-.097 0 14.973 0 33.5s15.071 33.597 33.598 33.597c18.526 0 33.597-15.07 33.597-33.597S52.125-.097 33.598-.097z"/></g><g><path d="M48.464 21.168L27.198 42.437l-8.466-8.467a1.601 1.601 0 0 0-2.263 0 1.601 1.601 0 0 0 0 2.263l9.6 9.599a1.607 1.607 0 0 0 2.262 0l22.398-22.398a1.601 1.601 0 0 0-2.265-2.266z"/></g></g></g></svg>