<svg xmlns="http://www.w3.org/2000/svg" width="59" height="58" viewBox="0 0 59 58"><g><g><g><path fill="#1a1818" d="M.9 29.134C.9 13.239 13.783.354 29.678.354c15.894 0 28.78 12.885 28.78 28.78 0 15.894-12.886 28.78-28.78 28.78-15.895 0-28.78-12.886-28.78-28.78z"/></g><g><g><path fill="#fff" d="M39.141 25.98a2.103 2.103 0 0 1-2.103-2.103 1.051 1.051 0 1 0-2.102 0 2.103 2.103 0 0 1-4.206 0 1.051 1.051 0 1 0-2.103 0 2.103 2.103 0 1 1-4.205 0 1.051 1.051 0 1 0-2.103 0 2.106 2.106 0 1 1-4.205.22l2.754-5.477H38.49l2.755 5.478a2.103 2.103 0 0 1-2.103 1.882zm4.09-2.576l-3.154-6.308a1.051 1.051 0 0 0-.936-.579H20.217a1.051 1.051 0 0 0-.936.579l-3.154 6.308a1.051 1.051 0 0 0-.116.473 4.205 4.205 0 0 0 7.36 2.755 4.205 4.205 0 0 0 6.308 0 4.205 4.205 0 0 0 6.308 0 4.205 4.205 0 0 0 7.36-2.755 1.051 1.051 0 0 0-.116-.473z"/></g><g><path fill="#fff" d="M27.05 39.647v-7.36h5.257v7.36zM40.193 25.98c-.581 0-1.052.47-1.052 1.051v12.616H34.41v-8.41c0-.581-.47-1.052-1.051-1.052h-7.36c-.58 0-1.051.47-1.051 1.052v8.41h-4.731V27.031a1.051 1.051 0 0 0-2.103 0V40.7c0 .58.47 1.051 1.051 1.051h21.028c.58 0 1.05-.47 1.05-1.051V27.03c0-.58-.47-1.051-1.05-1.051z"/></g></g></g></g></svg>