<svg xmlns="http://www.w3.org/2000/svg" width="172" height="78" viewBox="0 0 172 78"><g><g><g><path fill="#1a1818" d="M85.59 72.982c-40.149 0-72.694-15.212-72.694-33.98 0-18.77 32.545-33.983 72.694-33.983 40.147 0 72.693 15.213 72.693 33.983 0 18.768-32.546 33.98-72.693 33.98zM85.59 0C38.32 0 0 17.461 0 39.002 0 60.538 38.32 78 85.59 78c47.267 0 85.587-17.462 85.587-38.998C171.177 17.46 132.857 0 85.59 0z"/></g><g><path fill="#1a1818" d="M43.932 45.475V30.983h2.56v14.492z"/></g><g><path fill="#1a1818" d="M45.092 28.99c.817 0 1.481-.66 1.481-1.47 0-.812-.664-1.47-1.481-1.47-.818 0-1.482.658-1.482 1.47 0 .81.664 1.47 1.482 1.47z"/></g><g><path fill="#1a1818" d="M53.049 41.258l3.52-3.19c4.85.56 5.172 1.913 5.334 7.407h2.893v-3.418c-.08-4.626-4.556-5.786-6.01-5.995l5.609-5.08h-3.456l-7.89 6.717v-6.716h-2.56v14.492h2.56z"/></g><g><path fill="#1a1818" d="M69.85 45.475h11.63v-2.7H70.07c.172-.953.47-2.067.984-3.19H81.56v-2.552h-8.882c1.74-2.014 4.54-3.624 9.043-3.738v-2.938c-8.668.08-14.606 5.491-14.606 15.118h.964z"/></g><g><path fill="#1a1818" d="M113.656 45.475V30.983h2.559v14.492z"/></g><g><path fill="#1a1818" d="M114.815 28.99c.819 0 1.48-.66 1.48-1.47 0-.812-.661-1.47-1.48-1.47-.82 0-1.48.658-1.48 1.47 0 .81.66 1.47 1.48 1.47z"/></g><g><path fill="#1a1818" d="M122.773 41.258l3.521-3.19c4.849.56 5.172 1.913 5.332 7.407h2.894v-3.418c-.08-4.626-4.555-5.786-6.012-5.995l5.608-5.08h-3.454l-7.89 6.717v-6.716h-2.561v14.492h2.562z"/></g><g><path fill="#1a1818" d="M136.84 45.475h14.363v-2.7h-11.41c.173-.953.469-2.067.985-3.19h10.504v-2.552h-8.88c1.74-2.014 4.539-3.624 9.043-3.738v-2.938c-8.669.08-14.605 5.491-14.605 15.118z"/></g><g><path fill="#1a1818" d="M109.762 27.325l-9.208 10.265-9.473-10.265v20.78H39.9v-20.78L30.692 37.59l-9.473-10.265V50.42h3.457V36.564l6.177 6.37 5.592-6.102V50.42h58.091V36.564l6.179 6.37 5.67-6.123V50.42h45.29v-2.314h-41.913z"/></g><g><path fill="#1a1818" d="M42.658 59.457v-5.004h1.6v5.004z"/></g><g><path fill="#1a1818" d="M42.658 59.457v-5.004h1.6v5.004z"/></g><g><path fill="#1a1818" d="M50.572 57.805l-3.25-3.352h-1.55v5.004h1.48v-3.29l3.2 3.29h1.598v-5.004h-1.478z"/></g><g><path fill="#1a1818" d="M50.572 57.805l-3.25-3.352h-1.55v5.004h1.48v-3.29l3.2 3.29h1.598v-5.004h-1.478z"/></g><g><path fill="#1a1818" d="M53.182 55.298h2.34v4.159h1.598v-4.16h2.329v-.844h-6.267z"/></g><g><path fill="#1a1818" d="M53.182 55.298h2.34v4.159h1.598v-4.16h2.329v-.844h-6.267z"/></g><g><path fill="#1a1818" d="M62.09 57.255h3.95v-.848h-3.95v-1.11h4.246v-.844H60.49v5.004h6.002v-.847H62.09z"/></g><g><path fill="#1a1818" d="M62.09 57.255h3.95v-.848h-3.95v-1.11h4.246v-.844H60.49v5.004h6.002v-.847H62.09z"/></g><g><path fill="#1a1818" d="M70.615 56.57h-1.18v-1.272h1.244c.647 0 1.035.005 1.165.015.257.028.458.094.6.198.142.105.212.24.212.408a.498.498 0 0 1-.16.377.932.932 0 0 1-.449.212c-.19.04-.668.061-1.432.061zm2.457 1.098a3.97 3.97 0 0 0-.85-.423c.691-.061 1.211-.217 1.557-.462.347-.242.52-.552.52-.928 0-.295-.114-.56-.343-.79-.23-.227-.537-.388-.92-.48-.383-.088-.995-.132-1.841-.132h-3.36v5.004h1.6v-2.09h.325c.367 0 .636.018.805.055.17.037.33.108.482.208.152.1.432.344.843.734l1.145 1.093h1.905l-.964-.978c-.379-.388-.68-.66-.904-.811z"/></g><g><path fill="#1a1818" d="M70.615 56.57h-1.18v-1.272h1.244c.647 0 1.035.005 1.165.015.257.028.458.094.6.198.142.105.212.24.212.408a.498.498 0 0 1-.16.377.932.932 0 0 1-.449.212c-.19.04-.668.061-1.432.061zm2.457 1.098a3.97 3.97 0 0 0-.85-.423c.691-.061 1.211-.217 1.557-.462.347-.242.52-.552.52-.928 0-.295-.114-.56-.343-.79-.23-.227-.537-.388-.92-.48-.383-.088-.995-.132-1.841-.132h-3.36v5.004h1.6v-2.09h.325c.367 0 .636.018.805.055.17.037.33.108.482.208.152.1.432.344.843.734l1.145 1.093h1.905l-.964-.978c-.379-.388-.68-.66-.904-.811z"/></g><g><path fill="#1a1818" d="M80.607 57.805l-3.25-3.352h-1.548v5.004h1.478v-3.29l3.202 3.29h1.596v-5.004h-1.478z"/></g><g><path fill="#1a1818" d="M80.607 57.805l-3.25-3.352h-1.548v5.004h1.478v-3.29l3.202 3.29h1.596v-5.004h-1.478z"/></g><g><path fill="#1a1818" d="M85.81 57.471l1.066-1.852 1.098 1.852zm.236-3.018l-3.07 5.004h1.692l.656-1.14h3.17l.68 1.14H90.9l-3.166-5.004z"/></g><g><path fill="#1a1818" d="M85.81 57.471l1.066-1.852 1.098 1.852zm.236-3.018l-3.07 5.004h1.692l.656-1.14h3.17l.68 1.14H90.9l-3.166-5.004z"/></g><g><path fill="#1a1818" d="M96.15 58.416c-.306.173-.672.258-1.096.258-.576 0-1.042-.135-1.402-.405-.36-.266-.54-.717-.54-1.348 0-.596.182-1.028.547-1.294.365-.267.84-.4 1.426-.4.424 0 .785.076 1.081.226.297.15.494.354.587.614l1.577-.237c-.18-.403-.45-.71-.809-.926-.604-.361-1.389-.544-2.355-.544-1.106 0-2 .231-2.68.693-.679.462-1.019 1.107-1.019 1.941 0 .788.34 1.41 1.014 1.864.675.453 1.538.682 2.588.682.848 0 1.548-.134 2.1-.401.55-.269.947-.677 1.183-1.228l-1.545-.3c-.133.366-.352.634-.658.805z"/></g><g><path fill="#1a1818" d="M96.15 58.416c-.306.173-.672.258-1.096.258-.576 0-1.042-.135-1.402-.405-.36-.266-.54-.717-.54-1.348 0-.596.182-1.028.547-1.294.365-.267.84-.4 1.426-.4.424 0 .785.076 1.081.226.297.15.494.354.587.614l1.577-.237c-.18-.403-.45-.71-.809-.926-.604-.361-1.389-.544-2.355-.544-1.106 0-2 .231-2.68.693-.679.462-1.019 1.107-1.019 1.941 0 .788.34 1.41 1.014 1.864.675.453 1.538.682 2.588.682.848 0 1.548-.134 2.1-.401.55-.269.947-.677 1.183-1.228l-1.545-.3c-.133.366-.352.634-.658.805z"/></g><g><path fill="#1a1818" d="M99.672 59.457v-5.004h1.6v5.004z"/></g><g><path fill="#1a1818" d="M99.672 59.457v-5.004h1.6v5.004z"/></g><g><path fill="#1a1818" d="M107.865 58.245c-.408.29-.931.435-1.568.435-.636 0-1.164-.145-1.576-.44-.414-.292-.623-.723-.623-1.29 0-.576.203-1.006.606-1.294.403-.285.934-.43 1.593-.43.66 0 1.187.144 1.585.425.398.283.598.712.598 1.286 0 .58-.205 1.017-.615 1.308zm1.21-3.196c-.7-.46-1.633-.689-2.797-.689-.644 0-1.211.067-1.704.2-.369.099-.712.25-1.021.45-.31.203-.556.434-.736.688-.24.346-.36.775-.36 1.287 0 .797.345 1.424 1.039 1.878.694.457 1.628.684 2.804.684 1.162 0 2.088-.23 2.781-.685.695-.459 1.042-1.092 1.042-1.902 0-.816-.35-1.453-1.049-1.91z"/></g><g><path fill="#1a1818" d="M107.865 58.245c-.408.29-.931.435-1.568.435-.636 0-1.164-.145-1.576-.44-.414-.292-.623-.723-.623-1.29 0-.576.203-1.006.606-1.294.403-.285.934-.43 1.593-.43.66 0 1.187.144 1.585.425.398.283.598.712.598 1.286 0 .58-.205 1.017-.615 1.308zm1.21-3.196c-.7-.46-1.633-.689-2.797-.689-.644 0-1.211.067-1.704.2-.369.099-.712.25-1.021.45-.31.203-.556.434-.736.688-.24.346-.36.775-.36 1.287 0 .797.345 1.424 1.039 1.878.694.457 1.628.684 2.804.684 1.162 0 2.088-.23 2.781-.685.695-.459 1.042-1.092 1.042-1.902 0-.816-.35-1.453-1.049-1.91z"/></g><g><path fill="#1a1818" d="M116.16 57.805l-3.248-3.352h-1.55v5.004h1.478v-3.29l3.201 3.29h1.597v-5.004h-1.478z"/></g><g><path fill="#1a1818" d="M116.16 57.805l-3.248-3.352h-1.55v5.004h1.478v-3.29l3.201 3.29h1.597v-5.004h-1.478z"/></g><g><path fill="#1a1818" d="M121.363 57.471l1.065-1.852 1.098 1.852zm.233-3.018l-3.067 5.004h1.691l.655-1.14h3.17l.683 1.14h1.721l-3.164-5.004z"/></g><g><path fill="#1a1818" d="M121.363 57.471l1.065-1.852 1.098 1.852zm.233-3.018l-3.067 5.004h1.691l.655-1.14h3.17l.683 1.14h1.721l-3.164-5.004z"/></g><g><path fill="#1a1818" d="M128.95 54.494h-1.6v4.963h5.56v-.847h-3.96z"/></g><g><path fill="#1a1818" d="M128.95 54.494h-1.6v4.963h5.56v-.847h-3.96z"/></g></g></g></svg>