<svg xmlns="http://www.w3.org/2000/svg" width="172" height="78" viewBox="0 0 172 78"><g><g><g><path fill="#1a1818" d="M0 39.001C0 17.461 38.32 0 85.59 0c47.267 0 85.587 17.461 85.587 39.001C171.177 60.538 132.857 78 85.59 78 38.32 78 0 60.538 0 39.001z"/></g><g><path fill="#ffe100" d="M12.896 39.001C12.896 20.232 45.44 5.02 85.59 5.02c40.147 0 72.693 15.213 72.693 33.982s-32.546 33.98-72.693 33.98c-40.149 0-72.694-15.211-72.694-33.98z"/></g><g><g><g><path fill="#1a1818" d="M43.932 45.475V30.983h2.56v14.492z"/></g><g><path fill="#1a1818" d="M43.61 27.52c0-.812.664-1.47 1.482-1.47.817 0 1.481.658 1.481 1.47 0 .811-.664 1.47-1.481 1.47a1.477 1.477 0 0 1-1.482-1.47z"/></g></g><g><path fill="#1a1818" d="M53.049 37.699l7.89-6.716h3.456l-5.61 5.079c1.455.21 5.93 1.369 6.01 5.995v3.418h-2.892c-.162-5.494-.483-6.848-5.333-7.407l-3.521 3.19v4.217h-2.56V30.983h2.56z"/></g><g><path fill="#1a1818" d="M72.678 37.033h8.882v2.551H71.054a13.494 13.494 0 0 0-.985 3.19h11.412v2.701H67.115c0-9.627 5.938-15.038 14.606-15.118v2.938c-4.504.114-7.304 1.724-9.043 3.738z"/></g></g><g><g><g><path fill="#1a1818" d="M113.656 45.475V30.983h2.558v14.492z"/></g><g><path fill="#1a1818" d="M113.334 27.52c0-.812.662-1.47 1.481-1.47.818 0 1.48.658 1.48 1.47 0 .811-.662 1.47-1.48 1.47-.82 0-1.48-.659-1.48-1.47z"/></g></g><g><path fill="#1a1818" d="M122.772 37.699l7.89-6.716h3.454l-5.608 5.079c1.457.21 5.931 1.369 6.012 5.995v3.418h-2.894c-.16-5.494-.483-6.848-5.332-7.407l-3.522 3.19v4.217h-2.561V30.983h2.561z"/></g><g><path fill="#1a1818" d="M142.402 37.033h8.88v2.551h-10.504a13.373 13.373 0 0 0-.985 3.19h11.41v2.701H136.84c0-9.627 5.936-15.038 14.605-15.118v2.938c-4.504.114-7.303 1.724-9.043 3.738z"/></g></g><g><path fill="#1a1818" d="M39.9 48.106h51.18V27.325l9.474 10.265 9.207-10.265v20.78h41.914v2.315h-45.29V36.81l-5.67 6.125-6.18-6.371V50.42h-58.09V36.832l-5.592 6.103-6.177-6.371V50.42h-3.457V27.325l9.473 10.265L39.9 27.325z"/></g><g><path fill="#1a1818" d="M42.658 59.457v-5.004h1.6v5.004z"/></g><g><path fill="#1a1818" d="M45.772 59.457v-5.004h1.55l3.25 3.352v-3.352h1.478v5.004h-1.597l-3.202-3.29v3.29z"/></g><g><path fill="#1a1818" d="M55.522 59.457v-4.16h-2.34v-.844h6.267v.845H57.12v4.159z"/></g><g><path fill="#1a1818" d="M60.49 59.457v-5.004h5.846v.845h-4.247v1.109h3.95v.848h-3.95v1.354h4.402v.848z"/></g><g><path fill="#1a1818" d="M69.435 55.298h1.244c.647 0 1.034.005 1.165.015.257.028.459.094.6.198.142.105.212.24.212.408a.498.498 0 0 1-.16.377.933.933 0 0 1-.449.211c-.19.042-.668.062-1.432.062h-1.18zm0 4.159v-2.09h.325c.367 0 .636.018.805.055.17.037.33.107.482.207.152.102.432.345.843.735l1.144 1.093h1.906l-.965-.978c-.378-.388-.679-.66-.903-.81a3.946 3.946 0 0 0-.85-.424c.692-.061 1.211-.217 1.557-.462.347-.242.52-.552.52-.928 0-.295-.114-.56-.343-.79-.23-.227-.537-.388-.92-.48-.383-.088-.996-.132-1.841-.132h-3.36v5.004z"/></g><g><path fill="#1a1818" d="M75.809 59.457v-5.004h1.548l3.25 3.352v-3.352h1.478v5.004h-1.596l-3.202-3.29v3.29z"/></g><g><path fill="#1a1818" d="M85.81 57.471l1.066-1.852 1.098 1.852zm1.923-3.018h-1.688l-3.069 5.004h1.692l.656-1.14h3.17l.68 1.14h1.724z"/></g><g><path fill="#1a1818" d="M96.807 57.611l1.545.3c-.237.55-.632.96-1.183 1.228-.552.267-1.252.4-2.1.4-1.05 0-1.913-.228-2.588-.681-.675-.454-1.014-1.076-1.014-1.864 0-.834.34-1.48 1.019-1.941.68-.462 1.573-.693 2.68-.693.966 0 1.75.183 2.355.544a2 2 0 0 1 .81.926l-1.579.237c-.093-.26-.289-.464-.586-.614-.296-.15-.657-.226-1.08-.226-.587 0-1.062.133-1.427.4-.366.265-.547.698-.547 1.294 0 .63.18 1.082.54 1.348.36.27.826.405 1.402.405.424 0 .79-.085 1.095-.258.306-.17.525-.44.658-.805z"/></g><g><path fill="#1a1818" d="M99.672 59.457v-5.004h1.6v5.004z"/></g><g><path fill="#1a1818" d="M104.704 55.656c.403-.285.934-.43 1.593-.43.66 0 1.187.144 1.585.425.398.283.598.711.598 1.286 0 .58-.205 1.017-.615 1.307-.408.29-.931.436-1.568.436s-1.164-.145-1.577-.44c-.413-.292-.622-.723-.622-1.29 0-.576.203-1.006.606-1.294zm-2.248 1.329c0 .797.346 1.424 1.04 1.878.694.457 1.628.684 2.804.684 1.161 0 2.088-.23 2.781-.685.695-.458 1.042-1.092 1.042-1.902 0-.816-.35-1.453-1.05-1.91-.698-.46-1.63-.69-2.795-.69-.644 0-1.211.067-1.704.199-.37.1-.712.25-1.021.451-.31.203-.556.435-.736.688-.24.346-.36.775-.36 1.287z"/></g><g><path fill="#1a1818" d="M111.361 59.457v-5.004h1.55l3.249 3.352v-3.352h1.478v5.004h-1.597l-3.201-3.29v3.29z"/></g><g><path fill="#1a1818" d="M121.363 57.471l1.064-1.852 1.098 1.852zm1.922-3.018h-1.689l-3.068 5.004h1.692l.655-1.14h3.17l.682 1.14h1.722z"/></g><g><path fill="#1a1818" d="M127.35 59.457v-4.963h1.6v4.115h3.96v.848z"/></g></g></g></svg>