<svg xmlns="http://www.w3.org/2000/svg" width="112" height="112" viewBox="0 0 112 112"><defs><mask id="96tzb" width="2" height="2" x="-1" y="-1"><path fill="#fff" d="M30 8h52v52H30z"/><path d="M30 34C30 19.64 41.64 8 56 8s26 11.64 26 26-11.64 26-26 26-26-11.64-26-26z"/></mask><filter id="96tza" width="160" height="182" x="-24" y="-46" filterUnits="userSpaceOnUse"><feOffset dy="22" in="SourceGraphic" result="FeOffset1104Out"/><feGaussianBlur in="FeOffset1104Out" result="FeGaussianBlur1105Out" stdDeviation="17.6 17.6"/></filter></defs><g><g><g><g filter="url(#96tza)"><path fill="none" d="M30 34C30 19.64 41.64 8 56 8s26 11.64 26 26-11.64 26-26 26-26-11.64-26-26z" mask="url(&quot;#96tzb&quot;)"/><path fill-opacity=".08" d="M30 34C30 19.64 41.64 8 56 8s26 11.64 26 26-11.64 26-26 26-26-11.64-26-26z"/></g><path fill="#fff" d="M30 34C30 19.64 41.64 8 56 8s26 11.64 26 26-11.64 26-26 26-26-11.64-26-26z"/></g><g><g><g><g><path fill="#1a1818" d="M46.508 43.967l1.024-3.635-.261-.407a10.485 10.485 0 0 1-1.662-5.678c0-5.802 4.72-10.523 10.523-10.523 5.802 0 10.523 4.72 10.523 10.523 0 5.802-4.72 10.523-10.523 10.523-1.937 0-3.83-.53-5.475-1.535L50.27 43zm3.429 1.337a12.656 12.656 0 0 0 6.195 1.616c6.988 0 12.673-5.685 12.673-12.673S63.12 21.575 56.132 21.575 43.46 27.259 43.46 34.247c0 2.27.601 4.479 1.744 6.42l-1.777 6.313z"/></g><g><path fill="#1a1818" d="M52.572 28.349l-.822-.045a.994.994 0 0 0-.707.242c-.399.346-1.036 1.015-1.232 1.888-.292 1.3.16 2.892 1.327 4.485 1.168 1.592 3.344 4.14 7.192 5.228 1.24.35 2.216.114 2.969-.367a2.655 2.655 0 0 0 1.155-1.685l.13-.614a.426.426 0 0 0-.237-.476l-2.78-1.28a.426.426 0 0 0-.515.126l-1.091 1.414a.312.312 0 0 1-.351.105c-.747-.263-3.25-1.311-4.623-3.956a.315.315 0 0 1 .04-.352l1.042-1.206a.426.426 0 0 0 .07-.446l-1.198-2.803a.426.426 0 0 0-.369-.258z"/></g></g></g></g></g></g></svg>